<svg xmlns="http://www.w3.org/2000/svg" viewBox="0 0 800 500" preserveAspectRatio="xMidYMid slice">
  <defs>
    <pattern id="g" width="24" height="24" patternUnits="userSpaceOnUse">
      <path d="M24 0H0V24" fill="none" stroke="#a9bec1" stroke-opacity=".06" stroke-width="1"/>
    </pattern>
    <linearGradient id="v" x1="0" y1="0" x2="0" y2="1">
      <stop offset="0" stop-color="#000" stop-opacity="0"/>
      <stop offset="1" stop-color="#000" stop-opacity=".55"/>
    </linearGradient>
  </defs>
  <rect width="800" height="500" fill="#0a1011"/>
  <rect width="800" height="500" fill="url(#g)"/>

  <g font-family="ui-monospace, monospace" fill="#a9bec1">
    <text x="32" y="34" font-size="11" fill-opacity=".55" letter-spacing="2">REC_004 // EVENT BUS</text>
    <text x="32" y="50" font-size="9" fill-opacity=".4" letter-spacing="1">MULTI-CHANNEL TIMELINE / 8 SUBJECTS / 1.0s WINDOW</text>
    <text x="768" y="34" font-size="9" fill-opacity=".35" text-anchor="end" letter-spacing="1">SCHEMA v3.2 / KAFKA-ISH</text>
    <text x="768" y="50" font-size="9" fill-opacity=".35" text-anchor="end" letter-spacing="1">RATE: 4.2k evt/s</text>

    <g font-size="8" fill-opacity=".4" text-anchor="middle">
      <text x="120" y="74">0.0s</text>
      <text x="200" y="74">0.2s</text>
      <text x="280" y="74">0.4s</text>
      <text x="360" y="74">0.6s</text>
      <text x="440" y="74">0.8s</text>
      <text x="520" y="74">1.0s</text>
    </g>
    <g stroke="#a9bec1" stroke-opacity=".12" stroke-dasharray="2 4">
      <line x1="120" y1="80" x2="120" y2="370"/>
      <line x1="200" y1="80" x2="200" y2="370"/>
      <line x1="280" y1="80" x2="280" y2="370"/>
      <line x1="360" y1="80" x2="360" y2="370"/>
      <line x1="440" y1="80" x2="440" y2="370"/>
      <line x1="520" y1="80" x2="520" y2="370"/>
    </g>

    <g>
      <g>
        <text x="32" y="98" font-size="9" fill-opacity=".5">CH_01</text>
        <text x="32" y="108" font-size="7" fill-opacity=".3">user.intent</text>
        <line x1="120" y1="100" x2="520" y2="100" stroke="#a9bec1" stroke-opacity=".15"/>
        <g fill="#d2e0df">
          <circle cx="130" cy="100" r="1.8"/><circle cx="158" cy="100" r="1.8"/><circle cx="172" cy="100" r="1.8"/>
          <circle cx="240" cy="100" r="1.8"/><circle cx="268" cy="100" r="1.8"/>
          <circle cx="312" cy="100" r="1.8"/><circle cx="318" cy="100" r="1.8"/><circle cx="324" cy="100" r="1.8"/>
          <circle cx="402" cy="100" r="1.8"/><circle cx="448" cy="100" r="1.8"/>
          <circle cx="496" cy="100" r="1.8"/>
        </g>
        <text x="540" y="103" font-size="8" fill-opacity=".45">412/s</text>
      </g>

      <g>
        <text x="32" y="128" font-size="9" fill-opacity=".5">CH_02</text>
        <text x="32" y="138" font-size="7" fill-opacity=".3">tool.call</text>
        <line x1="120" y1="130" x2="520" y2="130" stroke="#a9bec1" stroke-opacity=".15"/>
        <g fill="#d2e0df">
          <rect x="148" y="127" width="4" height="6"/><rect x="186" y="127" width="4" height="6"/>
          <rect x="226" y="127" width="4" height="6"/><rect x="234" y="127" width="4" height="6"/>
          <rect x="298" y="127" width="4" height="6"/>
          <rect x="362" y="127" width="4" height="6"/><rect x="370" y="127" width="4" height="6"/>
          <rect x="424" y="127" width="4" height="6"/>
          <rect x="478" y="127" width="4" height="6"/>
        </g>
        <text x="540" y="133" font-size="8" fill-opacity=".45">218/s</text>
      </g>

      <g>
        <text x="32" y="158" font-size="9" fill-opacity=".5">CH_03</text>
        <text x="32" y="168" font-size="7" fill-opacity=".3">llm.token</text>
        <line x1="120" y1="160" x2="520" y2="160" stroke="#a9bec1" stroke-opacity=".15"/>
        <g fill="#d2e0df">
          <circle cx="142" cy="160" r="2"/>
          <circle cx="194" cy="160" r="2"/><circle cx="200" cy="160" r="2"/><circle cx="206" cy="160" r="2"/>
          <circle cx="252" cy="160" r="2"/>
          <circle cx="318" cy="160" r="2"/><circle cx="324" cy="160" r="2"/><circle cx="330" cy="160" r="2"/><circle cx="336" cy="160" r="2"/>
          <circle cx="394" cy="160" r="2"/>
          <circle cx="446" cy="160" r="2"/><circle cx="452" cy="160" r="2"/>
          <circle cx="508" cy="160" r="2"/>
        </g>
        <text x="540" y="163" font-size="8" fill-opacity=".45">984/s</text>
      </g>

      <g>
        <text x="32" y="188" font-size="9" fill-opacity=".5">CH_04</text>
        <text x="32" y="198" font-size="7" fill-opacity=".3">eval.result</text>
        <line x1="120" y1="190" x2="520" y2="190" stroke="#a9bec1" stroke-opacity=".15"/>
        <g fill="#d2e0df">
          <polygon points="156,187 152,193 160,193"/><polygon points="224,187 220,193 228,193"/>
          <polygon points="290,187 286,193 294,193"/><polygon points="354,187 350,193 358,193"/>
          <polygon points="418,187 414,193 422,193"/><polygon points="484,187 480,193 488,193"/>
        </g>
        <text x="540" y="193" font-size="8" fill-opacity=".45">96/s</text>
      </g>

      <g>
        <text x="32" y="218" font-size="9" fill-opacity=".5">CH_05</text>
        <text x="32" y="228" font-size="7" fill-opacity=".3">trace.span</text>
        <line x1="120" y1="220" x2="520" y2="220" stroke="#a9bec1" stroke-opacity=".15"/>
        <g fill="#d2e0df">
          <circle cx="138" cy="220" r="1.5"/><circle cx="148" cy="220" r="1.5"/><circle cx="158" cy="220" r="1.5"/>
          <circle cx="210" cy="220" r="1.5"/>
          <circle cx="262" cy="220" r="1.5"/><circle cx="272" cy="220" r="1.5"/>
          <circle cx="334" cy="220" r="1.5"/><circle cx="344" cy="220" r="1.5"/><circle cx="354" cy="220" r="1.5"/>
          <circle cx="416" cy="220" r="1.5"/>
          <circle cx="478" cy="220" r="1.5"/>
        </g>
        <text x="540" y="223" font-size="8" fill-opacity=".45">1.2k/s</text>
      </g>

      <g>
        <text x="32" y="248" font-size="9" fill-opacity=".5">CH_06</text>
        <text x="32" y="258" font-size="7" fill-opacity=".3">retry.queue</text>
        <line x1="120" y1="250" x2="520" y2="250" stroke="#a9bec1" stroke-opacity=".15"/>
        <g fill="#d2e0df">
          <circle cx="186" cy="250" r="2"/>
          <circle cx="282" cy="250" r="2"/>
          <circle cx="392" cy="250" r="2"/>
        </g>
        <g stroke="#d2e0df" stroke-width="1" fill="none">
          <path d="M198 246 L202 250 L198 254 M202 250 L208 250"/>
        </g>
        <text x="540" y="253" font-size="8" fill-opacity=".45">28/s</text>
      </g>

      <g>
        <text x="32" y="278" font-size="9" fill-opacity=".5">CH_07</text>
        <text x="32" y="288" font-size="7" fill-opacity=".3">cache.hit</text>
        <line x1="120" y1="280" x2="520" y2="280" stroke="#a9bec1" stroke-opacity=".15"/>
        <g fill="#d2e0df" fill-opacity=".7">
          <circle cx="132" cy="280" r="1.5"/><circle cx="140" cy="280" r="1.5"/><circle cx="148" cy="280" r="1.5"/>
          <circle cx="156" cy="280" r="1.5"/><circle cx="164" cy="280" r="1.5"/><circle cx="172" cy="280" r="1.5"/>
          <circle cx="208" cy="280" r="1.5"/><circle cx="216" cy="280" r="1.5"/><circle cx="224" cy="280" r="1.5"/>
          <circle cx="232" cy="280" r="1.5"/><circle cx="240" cy="280" r="1.5"/>
          <circle cx="284" cy="280" r="1.5"/><circle cx="292" cy="280" r="1.5"/><circle cx="300" cy="280" r="1.5"/>
          <circle cx="308" cy="280" r="1.5"/><circle cx="316" cy="280" r="1.5"/><circle cx="324" cy="280" r="1.5"/>
          <circle cx="360" cy="280" r="1.5"/><circle cx="368" cy="280" r="1.5"/><circle cx="376" cy="280" r="1.5"/>
          <circle cx="412" cy="280" r="1.5"/><circle cx="420" cy="280" r="1.5"/><circle cx="428" cy="280" r="1.5"/>
          <circle cx="464" cy="280" r="1.5"/><circle cx="472" cy="280" r="1.5"/><circle cx="480" cy="280" r="1.5"/>
        </g>
        <text x="540" y="283" font-size="8" fill-opacity=".45">2.8k/s</text>
      </g>

      <g>
        <text x="32" y="308" font-size="9" fill-opacity=".5">CH_08</text>
        <text x="32" y="318" font-size="7" fill-opacity=".3">dead.letter</text>
        <line x1="120" y1="310" x2="520" y2="310" stroke="#a9bec1" stroke-opacity=".15"/>
        <g stroke="#d2e0df" stroke-width="1" fill="none">
          <path d="M286 305 L292 311 M286 311 L292 305"/>
          <path d="M418 305 L424 311 M418 311 L424 305"/>
        </g>
        <text x="540" y="313" font-size="8" fill-opacity=".45">2/s</text>
      </g>
    </g>

    <g stroke="#a9bec1" stroke-opacity=".2">
      <line x1="32" y1="338" x2="768" y2="338"/>
    </g>

    <g>
      <text x="32" y="358" font-size="9" fill-opacity=".45" letter-spacing="1">DENSITY</text>
      <g fill="#d2e0df">
        <rect x="120" y="350" width="6" height="14"/>
        <rect x="128" y="346" width="6" height="18"/>
        <rect x="136" y="342" width="6" height="22"/>
        <rect x="144" y="338" width="6" height="26"/>
        <rect x="160" y="344" width="6" height="20"/>
        <rect x="168" y="348" width="6" height="16"/>
        <rect x="176" y="346" width="6" height="18"/>
        <rect x="184" y="350" width="6" height="14"/>
        <rect x="200" y="342" width="6" height="22"/>
        <rect x="208" y="338" width="6" height="26"/>
        <rect x="216" y="334" width="6" height="30"/>
        <rect x="224" y="330" width="6" height="34"/>
        <rect x="232" y="334" width="6" height="30"/>
        <rect x="248" y="340" width="6" height="24"/>
        <rect x="256" y="344" width="6" height="20"/>
        <rect x="264" y="338" width="6" height="26"/>
        <rect x="272" y="334" width="6" height="30"/>
        <rect x="288" y="340" width="6" height="24"/>
        <rect x="296" y="344" width="6" height="20"/>
        <rect x="304" y="346" width="6" height="18"/>
        <rect x="312" y="348" width="6" height="16"/>
        <rect x="328" y="344" width="6" height="20"/>
        <rect x="336" y="340" width="6" height="24"/>
        <rect x="344" y="336" width="6" height="28"/>
        <rect x="352" y="340" width="6" height="24"/>
        <rect x="360" y="342" width="6" height="22"/>
        <rect x="376" y="346" width="6" height="18"/>
        <rect x="384" y="348" width="6" height="16"/>
        <rect x="392" y="350" width="6" height="14"/>
        <rect x="400" y="348" width="6" height="16"/>
        <rect x="416" y="344" width="6" height="20"/>
        <rect x="424" y="340" width="6" height="24"/>
        <rect x="432" y="338" width="6" height="26"/>
        <rect x="440" y="342" width="6" height="22"/>
        <rect x="448" y="346" width="6" height="18"/>
        <rect x="464" y="350" width="6" height="14"/>
        <rect x="472" y="346" width="6" height="18"/>
        <rect x="480" y="342" width="6" height="22"/>
        <rect x="488" y="340" width="6" height="24"/>
        <rect x="496" y="344" width="6" height="20"/>
        <rect x="504" y="348" width="6" height="16"/>
        <rect x="512" y="350" width="6" height="14"/>
      </g>
    </g>

    <g>
      <text x="32" y="396" font-size="8" fill-opacity=".4">LAT p50</text>
      <text x="120" y="396" font-size="8" fill="#d2e0df">2.1ms</text>
      <text x="32" y="412" font-size="8" fill-opacity=".4">LAT p99</text>
      <text x="120" y="412" font-size="8" fill="#d2e0df">14.7ms</text>
      <text x="200" y="396" font-size="8" fill-opacity=".4">DROP</text>
      <text x="280" y="396" font-size="8" fill="#d2e0df">0.04%</text>
      <text x="200" y="412" font-size="8" fill-opacity=".4">BACKPRESSURE</text>
      <text x="320" y="412" font-size="8" fill="#d2e0df">0.12s @ 0.78s</text>
      <text x="430" y="396" font-size="8" fill-opacity=".4">CONSUMERS</text>
      <text x="530" y="396" font-size="8" fill="#d2e0df">12 / 14 alive</text>
      <text x="430" y="412" font-size="8" fill-opacity=".4">REPLAY</text>
      <text x="510" y="412" font-size="8" fill="#d2e0df">offset 8421</text>
      <text x="600" y="396" font-size="8" fill-opacity=".4" text-anchor="end">PARTITIONS</text>
      <text x="768" y="396" font-size="8" fill="#d2e0df" text-anchor="end">64</text>
      <text x="600" y="412" font-size="8" fill-opacity=".4" text-anchor="end">REPLICATION</text>
      <text x="768" y="412" font-size="8" fill="#d2e0df" text-anchor="end">3</text>
    </g>

    <line x1="32" y1="432" x2="768" y2="432" stroke="#a9bec1" stroke-opacity=".15"/>
    <g font-size="8" fill-opacity=".4">
      <text x="32" y="452">[08:42:18.221Z] user.intent: classify(soft_fork=0.04) -&gt; plan</text>
      <text x="32" y="466">[08:42:18.243Z] tool.call: search.fetch(query="replay 8421")</text>
      <text x="32" y="480">[08:42:18.276Z] llm.token: 412 tok / 1.18s / ttft=0.34s</text>
    </g>
  </g>
  <rect width="800" height="500" fill="url(#v)" pointer-events="none"/>
</svg>
